<svg id="visual" viewBox="0 0 900 600" width="900" height="600" xmlns="http://www.w3.org/2000/svg" xmlns:xlink="http://www.w3.org/1999/xlink" version="1.1"><path d="M0 234L21.5 226.7C43 219.3 86 204.7 128.8 203C171.7 201.3 214.3 212.7 257.2 214.8C300 217 343 210 385.8 202.7C428.7 195.3 471.3 187.7 514.2 193.2C557 198.7 600 217.3 642.8 227.2C685.7 237 728.3 238 771.2 229.8C814 221.7 857 204.3 878.5 195.7L900 187L900 0L878.5 0C857 0 814 0 771.2 0C728.3 0 685.7 0 642.8 0C600 0 557 0 514.2 0C471.3 0 428.7 0 385.8 0C343 0 300 0 257.2 0C214.3 0 171.7 0 128.8 0C86 0 43 0 21.5 0L0 0Z" fill="#7fd7dd"></path><path d="M0 210L21.5 202.3C43 194.7 86 179.3 128.8 174.5C171.7 169.7 214.3 175.3 257.2 176.8C300 178.3 343 175.7 385.8 179.5C428.7 183.3 471.3 193.7 514.2 195.5C557 197.3 600 190.7 642.8 184.7C685.7 178.7 728.3 173.3 771.2 169.8C814 166.3 857 164.7 878.5 163.8L900 163L900 0L878.5 0C857 0 814 0 771.2 0C728.3 0 685.7 0 642.8 0C600 0 557 0 514.2 0C471.3 0 428.7 0 385.8 0C343 0 300 0 257.2 0C214.3 0 171.7 0 128.8 0C86 0 43 0 21.5 0L0 0Z" fill="#4cc9e5"></path><path d="M0 142L21.5 148.8C43 155.7 86 169.3 128.8 176C171.7 182.7 214.3 182.3 257.2 181.2C300 180 343 178 385.8 170.7C428.7 163.3 471.3 150.7 514.2 143C557 135.3 600 132.7 642.8 135C685.7 137.3 728.3 144.7 771.2 152C814 159.3 857 166.7 878.5 170.3L900 174L900 0L878.5 0C857 0 814 0 771.2 0C728.3 0 685.7 0 642.8 0C600 0 557 0 514.2 0C471.3 0 428.7 0 385.8 0C343 0 300 0 257.2 0C214.3 0 171.7 0 128.8 0C86 0 43 0 21.5 0L0 0Z" fill="#00b9ef"></path><path d="M0 103L21.5 112.2C43 121.3 86 139.7 128.8 142.8C171.7 146 214.3 134 257.2 127.3C300 120.7 343 119.3 385.8 119.5C428.7 119.7 471.3 121.3 514.2 121.2C557 121 600 119 642.8 116.3C685.7 113.7 728.3 110.3 771.2 115.5C814 120.7 857 134.3 878.5 141.2L900 148L900 0L878.5 0C857 0 814 0 771.2 0C728.3 0 685.7 0 642.8 0C600 0 557 0 514.2 0C471.3 0 428.7 0 385.8 0C343 0 300 0 257.2 0C214.3 0 171.7 0 128.8 0C86 0 43 0 21.5 0L0 0Z" fill="#00a7f6"></path><path d="M0 100L21.5 104.2C43 108.3 86 116.7 128.8 114.3C171.7 112 214.3 99 257.2 94C300 89 343 92 385.8 93.8C428.7 95.7 471.3 96.3 514.2 103.2C557 110 600 123 642.8 127.3C685.7 131.7 728.3 127.3 771.2 121C814 114.7 857 106.3 878.5 102.2L900 98L900 0L878.5 0C857 0 814 0 771.2 0C728.3 0 685.7 0 642.8 0C600 0 557 0 514.2 0C471.3 0 428.7 0 385.8 0C343 0 300 0 257.2 0C214.3 0 171.7 0 128.8 0C86 0 43 0 21.5 0L0 0Z" fill="#0091f8"></path><path d="M0 106L21.5 104.3C43 102.7 86 99.3 128.8 95C171.7 90.7 214.3 85.3 257.2 85C300 84.7 343 89.3 385.8 89.7C428.7 90 471.3 86 514.2 86.2C557 86.3 600 90.7 642.8 88C685.7 85.3 728.3 75.7 771.2 69.7C814 63.7 857 61.3 878.5 60.2L900 59L900 0L878.5 0C857 0 814 0 771.2 0C728.3 0 685.7 0 642.8 0C600 0 557 0 514.2 0C471.3 0 428.7 0 385.8 0C343 0 300 0 257.2 0C214.3 0 171.7 0 128.8 0C86 0 43 0 21.5 0L0 0Z" fill="#0078f5"></path><path d="M0 56L21.5 59.5C43 63 86 70 128.8 67C171.7 64 214.3 51 257.2 47.7C300 44.3 343 50.7 385.8 51.5C428.7 52.3 471.3 47.7 514.2 49C557 50.3 600 57.7 642.8 61.5C685.7 65.3 728.3 65.7 771.2 63C814 60.3 857 54.7 878.5 51.8L900 49L900 0L878.5 0C857 0 814 0 771.2 0C728.3 0 685.7 0 642.8 0C600 0 557 0 514.2 0C471.3 0 428.7 0 385.8 0C343 0 300 0 257.2 0C214.3 0 171.7 0 128.8 0C86 0 43 0 21.5 0L0 0Z" fill="#005ced"></path><path d="M0 30L21.5 30.8C43 31.7 86 33.3 128.8 34.2C171.7 35 214.3 35 257.2 31.8C300 28.7 343 22.3 385.8 20C428.7 17.7 471.3 19.3 514.2 19.3C557 19.3 600 17.7 642.8 20.2C685.7 22.7 728.3 29.3 771.2 33.7C814 38 857 40 878.5 41L900 42L900 0L878.5 0C857 0 814 0 771.2 0C728.3 0 685.7 0 642.8 0C600 0 557 0 514.2 0C471.3 0 428.7 0 385.8 0C343 0 300 0 257.2 0C214.3 0 171.7 0 128.8 0C86 0 43 0 21.5 0L0 0Z" fill="#4238de"></path></svg>