<?xml version="1.0" encoding="UTF-8"?>
<!DOCTYPE svg PUBLIC "-//W3C//DTD SVG 1.1//EN" "http://www.w3.org/Graphics/SVG/1.1/DTD/svg11.dtd">
<svg xmlns="http://www.w3.org/2000/svg" version="1.1" width="198px" height="198px" style="shape-rendering:geometricPrecision; text-rendering:geometricPrecision; image-rendering:optimizeQuality; fill-rule:evenodd; clip-rule:evenodd" xmlns:xlink="http://www.w3.org/1999/xlink">
<g><path style="opacity:0.569" fill="#b5a27c" d="M 147.5,26.5 C 147.117,19.2143 145.617,18.881 143,25.5C 142.536,24.9056 142.369,24.2389 142.5,23.5C 143.005,19.6342 145.005,18.3009 148.5,19.5C 149.606,22.0665 149.273,24.3998 147.5,26.5 Z"/></g>
<g><path style="opacity:0.857" fill="#ac9a73" d="M 54.5,23.5 C 52.3591,20.9814 50.3591,20.9814 48.5,23.5C 47.1652,20.0064 48.4985,18.8397 52.5,20C 53.8228,20.8159 54.4894,21.9826 54.5,23.5 Z"/></g>
<g><path style="opacity:1" fill="#b38e48" d="M 54.5,23.5 C 57.2468,26.7226 59.2468,30.3893 60.5,34.5C 60.3433,35.8734 60.51,37.2068 61,38.5C 64.452,43.2413 63.6186,44.2413 58.5,41.5C 54.5464,35.8964 51.2131,29.8964 48.5,23.5C 50.3591,20.9814 52.3591,20.9814 54.5,23.5 Z"/></g>
<g><path style="opacity:0.371" fill="#bba067" d="M 96.5,7.5 C 98.4672,7.26057 100.301,7.59391 102,8.5C 102.667,17.5 102.667,26.5 102,35.5C 100.806,37.5254 99.306,37.8587 97.5,36.5C 96.5016,26.8563 96.1682,17.1896 96.5,7.5 Z"/></g>
<g><path style="opacity:1" fill="#b18735" d="M 97.5,10.5 C 98.5,10.5 99.5,10.5 100.5,10.5C 100.5,18.5 100.5,26.5 100.5,34.5C 99.5,34.5 98.5,34.5 97.5,34.5C 97.5,26.5 97.5,18.5 97.5,10.5 Z"/></g>
<g><path style="opacity:1" fill="#b49351" d="M 147.5,26.5 C 144.513,32.4734 141.513,38.4734 138.5,44.5C 137.065,46.4011 135.398,46.7345 133.5,45.5C 132.386,44.277 132.219,42.9437 133,41.5C 136.434,35.5863 139.601,29.5863 142.5,23.5C 142.369,24.2389 142.536,24.9056 143,25.5C 145.617,18.881 147.117,19.2143 147.5,26.5 Z"/></g>
<g><path style="opacity:0.725" fill="#b89a63" d="M 60.5,34.5 C 63.6563,37.3828 64.9896,41.0494 64.5,45.5C 61.1216,46.1089 59.1216,44.7756 58.5,41.5C 63.6186,44.2413 64.452,43.2413 61,38.5C 60.51,37.2068 60.3433,35.8734 60.5,34.5 Z"/></g>
<g><path style="opacity:1" fill="#b49753" d="M 128.5,51.5 C 118.887,48.7685 109.054,47.1019 99,46.5C 87.696,47.1741 76.8626,49.5075 66.5,53.5C 71.2884,50.1647 76.6217,47.6647 82.5,46C 88.0083,45.2208 93.5083,44.3875 99,43.5C 104.514,44.2401 110.014,45.0735 115.5,46C 120.406,46.7948 124.74,48.6281 128.5,51.5 Z"/></g>
<g><path style="opacity:1" fill="#b88825" d="M 128.5,51.5 C 128.833,51.5 129.167,51.5 129.5,51.5C 131.818,54.5176 134.818,56.8509 138.5,58.5C 138.787,61.6706 140.454,63.6706 143.5,64.5C 144.262,65.6283 144.929,66.7949 145.5,68C 147.519,68.4497 149.352,69.283 151,70.5C 155.359,78.0457 159.359,85.7124 163,93.5C 164.485,99.0764 165.318,104.743 165.5,110.5C 163.833,110.5 162.167,110.5 160.5,110.5C 144.153,110.833 127.82,110.499 111.5,109.5C 112.665,105.088 114.831,101.421 118,98.5C 120.697,94.4792 123.364,90.4792 126,86.5C 126.667,83.1667 126.667,79.8333 126,76.5C 125.5,76 125,75.5 124.5,75C 107.49,74.1671 90.4902,74.3337 73.5,75.5C 72.5565,80.1001 72.2232,84.7668 72.5,89.5C 84.1667,89.5 95.8333,89.5 107.5,89.5C 107.5,90.8333 107.5,92.1667 107.5,93.5C 104.023,95.4217 101.19,98.0884 99,101.5C 97.8793,104.592 96.7126,107.592 95.5,110.5C 74.8333,110.5 54.1667,110.5 33.5,110.5C 33.9422,106.846 34.2756,103.179 34.5,99.5C 36.2355,95.0429 37.2355,90.3762 37.5,85.5C 38.1174,85.6107 38.6174,85.944 39,86.5C 39.8575,82.1133 42.1909,78.7799 46,76.5C 47.6364,72.8901 49.6364,69.5568 52,66.5C 57.6631,63.3362 62.1631,59.0029 65.5,53.5C 65.8333,53.5 66.1667,53.5 66.5,53.5C 76.8626,49.5075 87.696,47.1741 99,46.5C 109.054,47.1019 118.887,48.7685 128.5,51.5 Z"/></g>
<g><path style="opacity:1" fill="#ae8d3e" d="M 28.5,66.5 C 24.6496,63.7392 20.9829,60.7392 17.5,57.5C 17.5,56.5 17.5,55.5 17.5,54.5C 18.8734,54.3433 20.2068,54.51 21.5,55C 21.1667,55.3333 20.8333,55.6667 20.5,56C 24.5089,59.4317 29.0089,62.265 34,64.5C 34.7494,65.635 34.5827,66.635 33.5,67.5C 31.9291,66.6906 30.2624,66.3573 28.5,66.5 Z"/></g>
<g><path style="opacity:1" fill="#b29658" d="M 173.5,63.5 C 173.5,62.1667 173.5,60.8333 173.5,59.5C 172.167,59.5 170.833,59.5 169.5,59.5C 172.892,55.7866 176.892,52.7866 181.5,50.5C 183.942,51.384 184.775,53.0507 184,55.5C 180.624,58.3826 177.124,61.0493 173.5,63.5 Z"/></g>
<g><path style="opacity:1" fill="#b19859" d="M 28.5,66.5 C 30.2624,66.3573 31.9291,66.6906 33.5,67.5C 34.5827,66.635 34.7494,65.635 34,64.5C 29.0089,62.265 24.5089,59.4317 20.5,56C 20.8333,55.6667 21.1667,55.3333 21.5,55C 20.2068,54.51 18.8734,54.3433 17.5,54.5C 17.5,55.5 17.5,56.5 17.5,57.5C 15.087,56.3202 14.087,54.3202 14.5,51.5C 16.604,51.2011 18.604,51.5344 20.5,52.5C 25.9867,57.0758 31.6533,61.4091 37.5,65.5C 38.6309,67.0745 38.7975,68.7412 38,70.5C 37.4387,71.0219 36.772,71.3552 36,71.5C 33.5373,69.6919 31.0373,68.0252 28.5,66.5 Z"/></g>
<g><path style="opacity:1" fill="#b18831" d="M 169.5,59.5 C 170.833,59.5 172.167,59.5 173.5,59.5C 173.5,60.8333 173.5,62.1667 173.5,63.5C 173.167,63.5 172.833,63.5 172.5,63.5C 167.212,65.6021 166.212,64.2688 169.5,59.5 Z"/></g>
<g><path style="opacity:1" fill="#b99a5b" d="M 169.5,59.5 C 166.212,64.2688 167.212,65.6021 172.5,63.5C 170.379,66.45 167.713,68.95 164.5,71C 160.675,71.8361 159.175,70.3361 160,66.5C 163.063,63.9245 166.229,61.5912 169.5,59.5 Z"/></g>
<g><path style="opacity:0.357" fill="#c5ba83" d="M 50.5,65.5 C 49.5265,68.135 47.8598,70.135 45.5,71.5C 46.4431,68.8908 48.1097,66.8908 50.5,65.5 Z"/></g>
<g><path style="opacity:1" fill="#b2944e" d="M 129.5,51.5 C 153.505,64.1545 165.838,84.1545 166.5,111.5C 164.5,111.5 162.5,111.5 160.5,111.5C 160.5,111.167 160.5,110.833 160.5,110.5C 162.167,110.5 163.833,110.5 165.5,110.5C 165.318,104.743 164.485,99.0764 163,93.5C 159.359,85.7124 155.359,78.0457 151,70.5C 149.352,69.283 147.519,68.4497 145.5,68C 144.929,66.7949 144.262,65.6283 143.5,64.5C 140.454,63.6706 138.787,61.6706 138.5,58.5C 134.818,56.8509 131.818,54.5176 129.5,51.5 Z"/></g>
<g><path style="opacity:1" fill="#b29349" d="M 65.5,53.5 C 62.1631,59.0029 57.6631,63.3362 52,66.5C 49.6364,69.5568 47.6364,72.8901 46,76.5C 42.1909,78.7799 39.8575,82.1133 39,86.5C 38.6174,85.944 38.1174,85.6107 37.5,85.5C 39.1588,80.1734 41.8255,75.5067 45.5,71.5C 47.8598,70.135 49.5265,68.135 50.5,65.5C 51.9599,63.5372 53.6266,61.7038 55.5,60C 58.7338,57.5841 62.0672,55.4175 65.5,53.5 Z"/></g>
<g><path style="opacity:1" fill="#4b5158" d="M 122.5,85.5 C 121.637,87.4214 120.971,89.4214 120.5,91.5C 115.956,96.0508 112.623,101.384 110.5,107.5C 109.069,108.78 108.402,110.447 108.5,112.5C 108.167,112.5 107.833,112.5 107.5,112.5C 106.053,110.162 106.553,108.162 109,106.5C 109.333,104.167 109.667,101.833 110,99.5C 110.333,99.8333 110.667,100.167 111,100.5C 113.001,97.6693 115.167,95.0026 117.5,92.5C 117.926,89.7898 119.093,87.4565 121,85.5C 121.494,83.8659 121.66,82.1992 121.5,80.5C 106.511,79.2021 91.5108,79.2021 76.5,80.5C 76.2322,82.099 76.5655,83.4324 77.5,84.5C 89.3217,85.4951 101.322,85.8284 113.5,85.5C 113.795,87.7354 113.461,89.7354 112.5,91.5C 112.5,90.8333 112.5,90.1667 112.5,89.5C 100.211,87.5197 87.5441,86.853 74.5,87.5C 74.5,85.1667 74.5,82.8333 74.5,80.5C 75.1667,80.5 75.5,80.1667 75.5,79.5C 91.1424,78.58 106.809,78.2466 122.5,78.5C 122.5,80.8333 122.5,83.1667 122.5,85.5 Z"/></g>
<g><path style="opacity:0.949" fill="#baa362" d="M 37.5,85.5 C 37.2355,90.3762 36.2355,95.0429 34.5,99.5C 33.8333,100.833 33.1667,102.167 32.5,103.5C 33.1695,97.113 34.8362,91.113 37.5,85.5 Z"/></g>
<g><path style="opacity:1" fill="#59574c" d="M 112.5,89.5 C 112.5,90.1667 112.5,90.8333 112.5,91.5C 107.963,95.2095 104.796,99.8762 103,105.5C 101.265,108.362 99.0979,110.696 96.5,112.5C 99.7397,105.925 103.406,99.5918 107.5,93.5C 108.5,93.1667 109.167,92.5 109.5,91.5C 110.5,90.8333 111.5,90.1667 112.5,89.5 Z"/></g>
<g><path style="opacity:1" fill="#ab8c48" d="M 107.5,93.5 C 103.406,99.5918 99.7397,105.925 96.5,112.5C 74.9935,112.831 53.6601,112.497 32.5,111.5C 32.5,108.833 32.5,106.167 32.5,103.5C 33.1667,102.167 33.8333,100.833 34.5,99.5C 34.2756,103.179 33.9422,106.846 33.5,110.5C 54.1667,110.5 74.8333,110.5 95.5,110.5C 96.7126,107.592 97.8793,104.592 99,101.5C 101.19,98.0884 104.023,95.4217 107.5,93.5 Z"/></g>
<g><path style="opacity:1" fill="#ab883e" d="M 160.5,110.5 C 160.5,110.833 160.5,111.167 160.5,111.5C 143.833,111.5 127.167,111.5 110.5,111.5C 110.5,110.167 110.5,108.833 110.5,107.5C 112.623,101.384 115.956,96.0508 120.5,91.5C 124.066,87.6618 125.399,82.9951 124.5,77.5C 124.389,76.8826 124.056,76.3826 123.5,76C 106.995,75.1718 90.6615,75.3385 74.5,76.5C 74.5,77.8333 74.5,79.1667 74.5,80.5C 74.5,82.8333 74.5,85.1667 74.5,87.5C 85.6593,88.3306 96.9926,88.8306 108.5,89C 109.252,89.6708 109.586,90.5041 109.5,91.5C 109.167,92.5 108.5,93.1667 107.5,93.5C 107.5,92.1667 107.5,90.8333 107.5,89.5C 95.8333,89.5 84.1667,89.5 72.5,89.5C 72.2232,84.7668 72.5565,80.1001 73.5,75.5C 90.4902,74.3337 107.49,74.1671 124.5,75C 125,75.5 125.5,76 126,76.5C 126.667,79.8333 126.667,83.1667 126,86.5C 123.364,90.4792 120.697,94.4792 118,98.5C 114.831,101.421 112.665,105.088 111.5,109.5C 127.82,110.499 144.153,110.833 160.5,110.5 Z"/></g>
<g><path style="opacity:1" fill="#9e8855" d="M 74.5,87.5 C 87.5441,86.853 100.211,87.5197 112.5,89.5C 111.5,90.1667 110.5,90.8333 109.5,91.5C 109.586,90.5041 109.252,89.6708 108.5,89C 96.9926,88.8306 85.6593,88.3306 74.5,87.5 Z"/></g>
<g><path style="opacity:1" fill="#6d6243" d="M 123.5,77.5 C 123.833,77.5 124.167,77.5 124.5,77.5C 125.399,82.9951 124.066,87.6618 120.5,91.5C 120.971,89.4214 121.637,87.4214 122.5,85.5C 123.473,83.0521 123.806,80.3854 123.5,77.5 Z"/></g>
<g><path style="opacity:1" fill="#3f5170" d="M 117.5,92.5 C 116.504,92.5858 115.671,92.2524 115,91.5C 114.824,88.1182 114.324,84.7848 113.5,81.5C 112.094,80.3318 110.928,80.6652 110,82.5C 107.116,81.7969 103.949,81.6302 100.5,82C 99.1824,82.6942 98.3491,83.5275 98,84.5C 91.1751,83.2767 84.3418,83.2767 77.5,84.5C 76.5655,83.4324 76.2322,82.099 76.5,80.5C 91.5108,79.2021 106.511,79.2021 121.5,80.5C 121.66,82.1992 121.494,83.8659 121,85.5C 119.093,87.4565 117.926,89.7898 117.5,92.5 Z"/></g>
<g><path style="opacity:1" fill="#4a4f4e" d="M 122.5,77.5 C 122.833,77.5 123.167,77.5 123.5,77.5C 123.806,80.3854 123.473,83.0521 122.5,85.5C 122.5,83.1667 122.5,80.8333 122.5,78.5C 106.809,78.2466 91.1424,78.58 75.5,79.5C 90.7977,77.5156 106.464,76.8489 122.5,77.5 Z"/></g>
<g><path style="opacity:1" fill="#6e6546" d="M 74.5,76.5 C 90.6754,76.1703 106.675,76.5036 122.5,77.5C 106.464,76.8489 90.7977,77.5156 75.5,79.5C 75.5,80.1667 75.1667,80.5 74.5,80.5C 74.5,79.1667 74.5,77.8333 74.5,76.5 Z"/></g>
<g><path style="opacity:1" fill="#9e874c" d="M 74.5,76.5 C 90.6615,75.3385 106.995,75.1718 123.5,76C 124.056,76.3826 124.389,76.8826 124.5,77.5C 124.167,77.5 123.833,77.5 123.5,77.5C 123.167,77.5 122.833,77.5 122.5,77.5C 106.675,76.5036 90.6754,76.1703 74.5,76.5 Z"/></g>
<g><path style="opacity:1" fill="#a79567" d="M 110.5,107.5 C 110.5,108.833 110.5,110.167 110.5,111.5C 127.167,111.5 143.833,111.5 160.5,111.5C 162.5,111.5 164.5,111.5 166.5,111.5C 147.341,112.497 128.007,112.83 108.5,112.5C 108.402,110.447 109.069,108.78 110.5,107.5 Z"/></g>
<g><path style="opacity:1" fill="#cac5b6" d="M 166.5,111.5 C 166.833,111.5 167.167,111.5 167.5,111.5C 167.5,112.167 167.5,112.833 167.5,113.5C 147.66,113.83 127.993,113.497 108.5,112.5C 128.007,112.83 147.341,112.497 166.5,111.5 Z"/></g>
<g><path style="opacity:0.618" fill="#c7cfdf" d="M 167.5,111.5 C 173.093,111.193 178.593,111.527 184,112.5C 184.667,115.833 184.667,119.167 184,122.5C 183.462,127.147 182.295,131.48 180.5,135.5C 181.167,128.167 181.833,120.833 182.5,113.5C 177.5,113.5 172.5,113.5 167.5,113.5C 167.5,112.833 167.5,112.167 167.5,111.5 Z"/></g>
<g><path style="opacity:1" fill="#c9cfe2" d="M 32.5,111.5 C 53.6601,112.497 74.9935,112.831 96.5,112.5C 96.1667,113.5 95.5,114.167 94.5,114.5C 68.6339,114.331 42.9672,114.831 17.5,116C 16.363,121.082 16.1963,126.249 17,131.5C 18.9465,132.747 20.7798,134.08 22.5,135.5C 21.7159,141.389 22.7159,147.056 25.5,152.5C 26.7946,153.098 28.1279,153.598 29.5,154C 28.944,154.383 28.6107,154.883 28.5,155.5C 27.8333,156.167 27.1667,156.833 26.5,157.5C 16.5714,143.91 12.5714,128.577 14.5,111.5C 20.5,111.5 26.5,111.5 32.5,111.5 Z"/></g>
<g><path style="opacity:1" fill="#c2d4fb" d="M 94.5,114.5 C 92.0528,122.154 90.0528,129.821 88.5,137.5C 88.6567,136.127 88.49,134.793 88,133.5C 87.6667,133.833 87.3333,134.167 87,134.5C 86.8195,136.488 86.9862,138.488 87.5,140.5C 85.8762,140.36 84.7096,141.027 84,142.5C 82.9563,141.377 82.2896,140.044 82,138.5C 80.5684,141.002 80.4018,143.502 81.5,146C 80.376,146.249 79.376,146.749 78.5,147.5C 80.3885,148.604 82.0552,149.937 83.5,151.5C 81.1489,153.229 78.4822,153.896 75.5,153.5C 71.3961,153.116 67.7294,151.616 64.5,149C 51.9687,146.606 40.302,148.773 29.5,155.5C 29.1667,155.5 28.8333,155.5 28.5,155.5C 28.6107,154.883 28.944,154.383 29.5,154C 28.1279,153.598 26.7946,153.098 25.5,152.5C 22.7159,147.056 21.7159,141.389 22.5,135.5C 20.7798,134.08 18.9465,132.747 17,131.5C 16.1963,126.249 16.363,121.082 17.5,116C 42.9672,114.831 68.6339,114.331 94.5,114.5 Z"/></g>
<g><path style="opacity:1" fill="#405373" d="M 117.5,92.5 C 115.167,95.0026 113.001,97.6693 111,100.5C 110.667,100.167 110.333,99.8333 110,99.5C 109.667,101.833 109.333,104.167 109,106.5C 106.553,108.162 106.053,110.162 107.5,112.5C 104.086,123.552 102.419,134.885 102.5,146.5C 97.8333,146.5 93.1667,146.5 88.5,146.5C 88.5,144.833 88.5,143.167 88.5,141.5C 88.5,140.167 88.5,138.833 88.5,137.5C 90.0528,129.821 92.0528,122.154 94.5,114.5C 95.5,114.167 96.1667,113.5 96.5,112.5C 99.0979,110.696 101.265,108.362 103,105.5C 104.796,99.8762 107.963,95.2095 112.5,91.5C 113.461,89.7354 113.795,87.7354 113.5,85.5C 101.322,85.8284 89.3217,85.4951 77.5,84.5C 84.3418,83.2767 91.1751,83.2767 98,84.5C 98.3491,83.5275 99.1824,82.6942 100.5,82C 103.949,81.6302 107.116,81.7969 110,82.5C 110.928,80.6652 112.094,80.3318 113.5,81.5C 114.324,84.7848 114.824,88.1182 115,91.5C 115.671,92.2524 116.504,92.5858 117.5,92.5 Z"/></g>
<g><path style="opacity:1" fill="#c2d4fa" d="M 107.5,112.5 C 107.833,112.5 108.167,112.5 108.5,112.5C 127.993,113.497 147.66,113.83 167.5,113.5C 172.5,113.5 177.5,113.5 182.5,113.5C 181.833,120.833 181.167,128.167 180.5,135.5C 178.905,143.097 175.905,150.097 171.5,156.5C 167.322,155.594 162.988,154.76 158.5,154C 147.375,148.343 135.709,147.01 123.5,150C 107.82,157.229 91.8202,158.396 75.5,153.5C 78.4822,153.896 81.1489,153.229 83.5,151.5C 82.0552,149.937 80.3885,148.604 78.5,147.5C 79.376,146.749 80.376,146.249 81.5,146C 80.4018,143.502 80.5684,141.002 82,138.5C 82.2896,140.044 82.9563,141.377 84,142.5C 84.7096,141.027 85.8762,140.36 87.5,140.5C 86.9862,138.488 86.8195,136.488 87,134.5C 87.3333,134.167 87.6667,133.833 88,133.5C 88.49,134.793 88.6567,136.127 88.5,137.5C 88.5,138.833 88.5,140.167 88.5,141.5C 87.5386,143.265 87.2053,145.265 87.5,147.5C 92.6946,147.821 97.6946,147.487 102.5,146.5C 102.419,134.885 104.086,123.552 107.5,112.5 Z"/></g>
<g><path style="opacity:1" fill="#92a5c6" d="M 88.5,141.5 C 88.5,143.167 88.5,144.833 88.5,146.5C 93.1667,146.5 97.8333,146.5 102.5,146.5C 97.6946,147.487 92.6946,147.821 87.5,147.5C 87.2053,145.265 87.5386,143.265 88.5,141.5 Z"/></g>
<g><path style="opacity:1" fill="#91a5bd" d="M 75.5,153.5 C 91.8202,158.396 107.82,157.229 123.5,150C 135.709,147.01 147.375,148.343 158.5,154C 162.988,154.76 167.322,155.594 171.5,156.5C 166.812,164.521 160.479,170.855 152.5,175.5C 151.778,175.082 151.278,174.416 151,173.5C 147.08,177.75 142.247,180.25 136.5,181C 135.5,182 134.5,183 133.5,184C 130.167,184.333 126.833,184.667 123.5,185C 122,185.833 120.833,187 120,188.5C 119.667,188.167 119.333,187.833 119,187.5C 106.338,190.424 93.5045,191.091 80.5,189.5C 73.7512,187.034 66.7512,185.367 59.5,184.5C 58.8333,184.167 58.1667,183.833 57.5,183.5C 58.5981,182.603 58.5981,181.77 57.5,181C 52.7305,177.106 47.3972,173.939 41.5,171.5C 39.9818,169.486 39.3151,167.486 39.5,165.5C 36.728,162.739 33.728,160.239 30.5,158C 29.7476,157.329 29.4142,156.496 29.5,155.5C 40.302,148.773 51.9687,146.606 64.5,149C 67.7294,151.616 71.3961,153.116 75.5,153.5 Z"/></g>
<g><path style="opacity:0.983" fill="#9aa5b4" d="M 28.5,155.5 C 28.8333,155.5 29.1667,155.5 29.5,155.5C 29.4142,156.496 29.7476,157.329 30.5,158C 33.728,160.239 36.728,162.739 39.5,165.5C 39.3151,167.486 39.9818,169.486 41.5,171.5C 47.3972,173.939 52.7305,177.106 57.5,181C 58.5981,181.77 58.5981,182.603 57.5,183.5C 44.7234,177.721 34.39,169.055 26.5,157.5C 27.1667,156.833 27.8333,156.167 28.5,155.5 Z"/></g>
<g><path style="opacity:1" fill="#9aa6b3" d="M 152.5,175.5 C 139.609,185.308 124.942,191.141 108.5,193C 91.3104,194.316 74.977,191.483 59.5,184.5C 66.7512,185.367 73.7512,187.034 80.5,189.5C 93.5045,191.091 106.338,190.424 119,187.5C 119.333,187.833 119.667,188.167 120,188.5C 120.833,187 122,185.833 123.5,185C 126.833,184.667 130.167,184.333 133.5,184C 134.5,183 135.5,182 136.5,181C 142.247,180.25 147.08,177.75 151,173.5C 151.278,174.416 151.778,175.082 152.5,175.5 Z"/></g>
</svg>
